<svg xmlns="http://www.w3.org/2000/svg" height="800" width="1200" viewBox="-87.9774 -48.834 762.4708 293.004"><path d="M253.41 59.161h63.264l-6.841 22.067-17.136.042-14.413 45.801h-25.748l14.248-45.801-20.213-.042 6.84-22.067zm234.88 0L479.835 91.6l-8.775-32.44h-23.555l-17.361 55.99-5.778-55.99h-28.377l-32.365 54.533-6.677-13.953c4.7-1.204 13.527-4.288 17.053-13.788 6.458-17.385-4.605-26.792-21.407-26.792h-31.745l-21.057 67.91H325.4l8.553-26.753 9.32 26.753h39.217l5.676-12.165h18.843l.75 12.165h43.645l9.749-33.733 6.334 33.733h25.542l21.059-67.91H488.29zm-136.198 23.4c-1.041 2.797-4.121 4.077-8.461 4.077h-5.496l2.9-9.09h6.389c3.675 0 6.09 1.213 4.668 5.013zm43.26 17.236l10.289-21.787.845 21.787h-11.133zm124.382-40.636h48.494l-5.926 18.888h-24.035l-2.018 5.98h24.739l-5.81 17.824h-24.232l-2.07 6.665h24.907l-5.751 18.553h-49.357l21.059-67.91zM72.968 127.658c-.677-.047-.382-.67-.041-.67l118.394-1.751a97.205 97.205 0 002.271-9.479l-116.384-1.415c-.677-.047-.379-.673-.043-.673l117.016-1.767c.454-3.124.758-6.295.912-9.508L81.41 100.983c-.676-.049-.382-.671-.042-.671l113.92-1.75c.005-.302.047-.595.047-.896 0-2.847-.189-5.646-.43-8.43l-109.42-1.4c-.677-.049-.38-.67-.044-.67l109.045-1.732a96.78 96.78 0 00-1.731-9.757l-102.9-1.412c-.675-.048-.382-.67-.044-.67l101.967-1.73a97.016 97.016 0 00-3.002-9.16l-94.89-1.377c-.676-.048-.38-.672-.043-.672l93.49-1.678C172.344 24.292 137.853 0 97.665 0 49.781 0 10.02 34.487 1.681 79.964l140.326-2.189-1.85 5.817-138.66-2.436A98.65 98.65 0 00.227 93.21l137.579-2.157-1.848 5.816-135.795-2.4C.125 95.539 0 96.587 0 97.666c0 3.006.184 5.969.451 8.908l133.153-2.164-1.847 5.816-131.225-2.41c.424 4.111 1.182 8.106 2.099 12.045l126.774-2.18-1.849 5.817-124.613-2.412a97.31 97.31 0 003.674 11.701l118.672-2.081-1.849 5.818-116.348-2.439a96.474 96.474 0 005.808 11.961l108.271-2.149-1.85 5.816-105.633-2.368c2.474 4.171 5.183 8.185 8.228 11.93l95.054-2.189-1.849 5.817-92.17-2.399c17.917 21.277 44.722 34.832 74.714 34.832 42.947 0 79.333-27.761 92.418-66.278l-117.115-1.4zM577.38 71.692h-1.803V62.83h3.144c2.174 0 3.455.652 3.455 2.678 0 1.63-.914 2.22-2.033 2.306l2.15 3.878h-2.127l-1.937-3.721h-.85v3.721zm1.59-5.226c.806 0 1.283-.176 1.283-1.154 0-.915-.931-.98-1.62-.98h-1.253v2.134h1.59zm-.29 9.033c-4.15 0-7.857-3.024-7.857-8.229 0-5.2 3.707-8.224 7.858-8.224 4.137 0 7.835 3.024 7.835 8.224 0 5.205-3.698 8.23-7.835 8.23zm0-14.538c-3.103 0-5.605 2.521-5.605 6.31 0 3.788 2.502 6.329 5.606 6.314v.015c3.017 0 5.579-2.541 5.579-6.33 0-3.788-2.562-6.309-5.58-6.309z" fill="#ef3c13"/></svg>